G04 #@! TF.GenerationSoftware,KiCad,Pcbnew,5.0.0-fee4fd1~66~ubuntu16.04.1*
G04 #@! TF.CreationDate,2018-09-26T17:40:44-07:00*
G04 #@! TF.ProjectId,Fullspectrum_LED_PCB,46756C6C737065637472756D5F4C4544,rev?*
G04 #@! TF.SameCoordinates,Original*
G04 #@! TF.FileFunction,Legend,Top*
G04 #@! TF.FilePolarity,Positive*
%FSLAX46Y46*%
G04 Gerber Fmt 4.6, Leading zero omitted, Abs format (unit mm)*
G04 Created by KiCad (PCBNEW 5.0.0-fee4fd1~66~ubuntu16.04.1) date Wed Sep 26 17:40:44 2018*
%MOMM*%
%LPD*%
G01*
G04 APERTURE LIST*
%ADD10C,0.300000*%
%ADD11C,0.120000*%
%ADD12C,0.100000*%
%ADD13C,0.150000*%
G04 APERTURE END LIST*
D10*
X53284571Y-48962571D02*
X53284571Y-50176857D01*
X53356000Y-50319714D01*
X53427428Y-50391142D01*
X53570285Y-50462571D01*
X53856000Y-50462571D01*
X53998857Y-50391142D01*
X54070285Y-50319714D01*
X54141714Y-50176857D01*
X54141714Y-48962571D01*
X54641714Y-48962571D02*
X55141714Y-50462571D01*
X55641714Y-48962571D01*
X53098000Y-38778571D02*
X53098000Y-37278571D01*
X54669428Y-38778571D02*
X54169428Y-38064285D01*
X53812285Y-38778571D02*
X53812285Y-37278571D01*
X54383714Y-37278571D01*
X54526571Y-37350000D01*
X54598000Y-37421428D01*
X54669428Y-37564285D01*
X54669428Y-37778571D01*
X54598000Y-37921428D01*
X54526571Y-37992857D01*
X54383714Y-38064285D01*
X53812285Y-38064285D01*
X51098000Y-30166571D02*
X51455142Y-31666571D01*
X51740857Y-30595142D01*
X52026571Y-31666571D01*
X52383714Y-30166571D01*
X52955142Y-31666571D02*
X52955142Y-30166571D01*
X53598000Y-31666571D02*
X53598000Y-30880857D01*
X53526571Y-30738000D01*
X53383714Y-30666571D01*
X53169428Y-30666571D01*
X53026571Y-30738000D01*
X52955142Y-30809428D01*
X54312285Y-31666571D02*
X54312285Y-30666571D01*
X54312285Y-30166571D02*
X54240857Y-30238000D01*
X54312285Y-30309428D01*
X54383714Y-30238000D01*
X54312285Y-30166571D01*
X54312285Y-30309428D01*
X54812285Y-30666571D02*
X55383714Y-30666571D01*
X55026571Y-30166571D02*
X55026571Y-31452285D01*
X55098000Y-31595142D01*
X55240857Y-31666571D01*
X55383714Y-31666571D01*
X56455142Y-31595142D02*
X56312285Y-31666571D01*
X56026571Y-31666571D01*
X55883714Y-31595142D01*
X55812285Y-31452285D01*
X55812285Y-30880857D01*
X55883714Y-30738000D01*
X56026571Y-30666571D01*
X56312285Y-30666571D01*
X56455142Y-30738000D01*
X56526571Y-30880857D01*
X56526571Y-31023714D01*
X55812285Y-31166571D01*
X65528285Y-30142571D02*
X65028285Y-29428285D01*
X64671142Y-30142571D02*
X64671142Y-28642571D01*
X65242571Y-28642571D01*
X65385428Y-28714000D01*
X65456857Y-28785428D01*
X65528285Y-28928285D01*
X65528285Y-29142571D01*
X65456857Y-29285428D01*
X65385428Y-29356857D01*
X65242571Y-29428285D01*
X64671142Y-29428285D01*
X66742571Y-30071142D02*
X66599714Y-30142571D01*
X66314000Y-30142571D01*
X66171142Y-30071142D01*
X66099714Y-29928285D01*
X66099714Y-29356857D01*
X66171142Y-29214000D01*
X66314000Y-29142571D01*
X66599714Y-29142571D01*
X66742571Y-29214000D01*
X66814000Y-29356857D01*
X66814000Y-29499714D01*
X66099714Y-29642571D01*
X67314000Y-29142571D02*
X67671142Y-30142571D01*
X68028285Y-29142571D01*
X70028285Y-28642571D02*
X70171142Y-28642571D01*
X70314000Y-28714000D01*
X70385428Y-28785428D01*
X70456857Y-28928285D01*
X70528285Y-29214000D01*
X70528285Y-29571142D01*
X70456857Y-29856857D01*
X70385428Y-29999714D01*
X70314000Y-30071142D01*
X70171142Y-30142571D01*
X70028285Y-30142571D01*
X69885428Y-30071142D01*
X69814000Y-29999714D01*
X69742571Y-29856857D01*
X69671142Y-29571142D01*
X69671142Y-29214000D01*
X69742571Y-28928285D01*
X69814000Y-28785428D01*
X69885428Y-28714000D01*
X70028285Y-28642571D01*
X49954571Y-51596857D02*
X48454571Y-51596857D01*
X49526000Y-51096857D01*
X48454571Y-50596857D01*
X49954571Y-50596857D01*
X49954571Y-49239714D02*
X49168857Y-49239714D01*
X49026000Y-49311142D01*
X48954571Y-49454000D01*
X48954571Y-49739714D01*
X49026000Y-49882571D01*
X49883142Y-49239714D02*
X49954571Y-49382571D01*
X49954571Y-49739714D01*
X49883142Y-49882571D01*
X49740285Y-49954000D01*
X49597428Y-49954000D01*
X49454571Y-49882571D01*
X49383142Y-49739714D01*
X49383142Y-49382571D01*
X49311714Y-49239714D01*
X48954571Y-48739714D02*
X48954571Y-48168285D01*
X48454571Y-48525428D02*
X49740285Y-48525428D01*
X49883142Y-48454000D01*
X49954571Y-48311142D01*
X49954571Y-48168285D01*
X48954571Y-47882571D02*
X48954571Y-47311142D01*
X48454571Y-47668285D02*
X49740285Y-47668285D01*
X49883142Y-47596857D01*
X49954571Y-47454000D01*
X49954571Y-47311142D01*
X48454571Y-45882571D02*
X49954571Y-45382571D01*
X48454571Y-44882571D01*
X49954571Y-43739714D02*
X49168857Y-43739714D01*
X49026000Y-43811142D01*
X48954571Y-43954000D01*
X48954571Y-44239714D01*
X49026000Y-44382571D01*
X49883142Y-43739714D02*
X49954571Y-43882571D01*
X49954571Y-44239714D01*
X49883142Y-44382571D01*
X49740285Y-44454000D01*
X49597428Y-44454000D01*
X49454571Y-44382571D01*
X49383142Y-44239714D01*
X49383142Y-43882571D01*
X49311714Y-43739714D01*
X49954571Y-42811142D02*
X49883142Y-42954000D01*
X49740285Y-43025428D01*
X48454571Y-43025428D01*
X49954571Y-41596857D02*
X49168857Y-41596857D01*
X49026000Y-41668285D01*
X48954571Y-41811142D01*
X48954571Y-42096857D01*
X49026000Y-42239714D01*
X49883142Y-41596857D02*
X49954571Y-41739714D01*
X49954571Y-42096857D01*
X49883142Y-42239714D01*
X49740285Y-42311142D01*
X49597428Y-42311142D01*
X49454571Y-42239714D01*
X49383142Y-42096857D01*
X49383142Y-41739714D01*
X49311714Y-41596857D01*
X48954571Y-40882571D02*
X49954571Y-40882571D01*
X49097428Y-40882571D02*
X49026000Y-40811142D01*
X48954571Y-40668285D01*
X48954571Y-40454000D01*
X49026000Y-40311142D01*
X49168857Y-40239714D01*
X49954571Y-40239714D01*
X49883142Y-38882571D02*
X49954571Y-39025428D01*
X49954571Y-39311142D01*
X49883142Y-39454000D01*
X49811714Y-39525428D01*
X49668857Y-39596857D01*
X49240285Y-39596857D01*
X49097428Y-39525428D01*
X49026000Y-39454000D01*
X48954571Y-39311142D01*
X48954571Y-39025428D01*
X49026000Y-38882571D01*
X48954571Y-38382571D02*
X49954571Y-38025428D01*
X48954571Y-37668285D02*
X49954571Y-38025428D01*
X50311714Y-38168285D01*
X50383142Y-38239714D01*
X50454571Y-38382571D01*
X49551142Y-26308857D02*
X49051142Y-26308857D01*
X49051142Y-27094571D02*
X49051142Y-25594571D01*
X49765428Y-25594571D01*
X50979714Y-26094571D02*
X50979714Y-27094571D01*
X50336857Y-26094571D02*
X50336857Y-26880285D01*
X50408285Y-27023142D01*
X50551142Y-27094571D01*
X50765428Y-27094571D01*
X50908285Y-27023142D01*
X50979714Y-26951714D01*
X51908285Y-27094571D02*
X51765428Y-27023142D01*
X51694000Y-26880285D01*
X51694000Y-25594571D01*
X52694000Y-27094571D02*
X52551142Y-27023142D01*
X52479714Y-26880285D01*
X52479714Y-25594571D01*
X54336857Y-27023142D02*
X54551142Y-27094571D01*
X54908285Y-27094571D01*
X55051142Y-27023142D01*
X55122571Y-26951714D01*
X55194000Y-26808857D01*
X55194000Y-26666000D01*
X55122571Y-26523142D01*
X55051142Y-26451714D01*
X54908285Y-26380285D01*
X54622571Y-26308857D01*
X54479714Y-26237428D01*
X54408285Y-26166000D01*
X54336857Y-26023142D01*
X54336857Y-25880285D01*
X54408285Y-25737428D01*
X54479714Y-25666000D01*
X54622571Y-25594571D01*
X54979714Y-25594571D01*
X55194000Y-25666000D01*
X55836857Y-26094571D02*
X55836857Y-27594571D01*
X55836857Y-26166000D02*
X55979714Y-26094571D01*
X56265428Y-26094571D01*
X56408285Y-26166000D01*
X56479714Y-26237428D01*
X56551142Y-26380285D01*
X56551142Y-26808857D01*
X56479714Y-26951714D01*
X56408285Y-27023142D01*
X56265428Y-27094571D01*
X55979714Y-27094571D01*
X55836857Y-27023142D01*
X57765428Y-27023142D02*
X57622571Y-27094571D01*
X57336857Y-27094571D01*
X57194000Y-27023142D01*
X57122571Y-26880285D01*
X57122571Y-26308857D01*
X57194000Y-26166000D01*
X57336857Y-26094571D01*
X57622571Y-26094571D01*
X57765428Y-26166000D01*
X57836857Y-26308857D01*
X57836857Y-26451714D01*
X57122571Y-26594571D01*
X59122571Y-27023142D02*
X58979714Y-27094571D01*
X58694000Y-27094571D01*
X58551142Y-27023142D01*
X58479714Y-26951714D01*
X58408285Y-26808857D01*
X58408285Y-26380285D01*
X58479714Y-26237428D01*
X58551142Y-26166000D01*
X58694000Y-26094571D01*
X58979714Y-26094571D01*
X59122571Y-26166000D01*
X59551142Y-26094571D02*
X60122571Y-26094571D01*
X59765428Y-25594571D02*
X59765428Y-26880285D01*
X59836857Y-27023142D01*
X59979714Y-27094571D01*
X60122571Y-27094571D01*
X60622571Y-27094571D02*
X60622571Y-26094571D01*
X60622571Y-26380285D02*
X60694000Y-26237428D01*
X60765428Y-26166000D01*
X60908285Y-26094571D01*
X61051142Y-26094571D01*
X62194000Y-26094571D02*
X62194000Y-27094571D01*
X61551142Y-26094571D02*
X61551142Y-26880285D01*
X61622571Y-27023142D01*
X61765428Y-27094571D01*
X61979714Y-27094571D01*
X62122571Y-27023142D01*
X62194000Y-26951714D01*
X62908285Y-27094571D02*
X62908285Y-26094571D01*
X62908285Y-26237428D02*
X62979714Y-26166000D01*
X63122571Y-26094571D01*
X63336857Y-26094571D01*
X63479714Y-26166000D01*
X63551142Y-26308857D01*
X63551142Y-27094571D01*
X63551142Y-26308857D02*
X63622571Y-26166000D01*
X63765428Y-26094571D01*
X63979714Y-26094571D01*
X64122571Y-26166000D01*
X64194000Y-26308857D01*
X64194000Y-27094571D01*
X66765428Y-27094571D02*
X66051142Y-27094571D01*
X66051142Y-25594571D01*
X67265428Y-27094571D02*
X67265428Y-26094571D01*
X67265428Y-25594571D02*
X67194000Y-25666000D01*
X67265428Y-25737428D01*
X67336857Y-25666000D01*
X67265428Y-25594571D01*
X67265428Y-25737428D01*
X68622571Y-26094571D02*
X68622571Y-27308857D01*
X68551142Y-27451714D01*
X68479714Y-27523142D01*
X68336857Y-27594571D01*
X68122571Y-27594571D01*
X67979714Y-27523142D01*
X68622571Y-27023142D02*
X68479714Y-27094571D01*
X68194000Y-27094571D01*
X68051142Y-27023142D01*
X67979714Y-26951714D01*
X67908285Y-26808857D01*
X67908285Y-26380285D01*
X67979714Y-26237428D01*
X68051142Y-26166000D01*
X68194000Y-26094571D01*
X68479714Y-26094571D01*
X68622571Y-26166000D01*
X69336857Y-27094571D02*
X69336857Y-25594571D01*
X69979714Y-27094571D02*
X69979714Y-26308857D01*
X69908285Y-26166000D01*
X69765428Y-26094571D01*
X69551142Y-26094571D01*
X69408285Y-26166000D01*
X69336857Y-26237428D01*
X70479714Y-26094571D02*
X71051142Y-26094571D01*
X70694000Y-25594571D02*
X70694000Y-26880285D01*
X70765428Y-27023142D01*
X70908285Y-27094571D01*
X71051142Y-27094571D01*
D11*
G04 #@! TO.C,J1*
X51705000Y-19339000D02*
X51705000Y-23469000D01*
X51705000Y-23469000D02*
X53880000Y-23469000D01*
X53880000Y-23469000D02*
X53880000Y-23869000D01*
X67675000Y-19339000D02*
X67675000Y-23469000D01*
X67675000Y-23469000D02*
X65500000Y-23469000D01*
X52720000Y-17149000D02*
X53875000Y-17149000D01*
X53875000Y-17149000D02*
X53875000Y-19149000D01*
X53875000Y-19149000D02*
X65505000Y-19149000D01*
X65505000Y-19149000D02*
X65505000Y-17149000D01*
X65505000Y-17149000D02*
X66660000Y-17149000D01*
G04 #@! TO.C,TH1*
X64114000Y-40610064D02*
X64114000Y-39405936D01*
X65934000Y-40610064D02*
X65934000Y-39405936D01*
D12*
G04 #@! TO.C,D1*
X60636000Y-29688000D02*
X58236000Y-29688000D01*
X58236000Y-29688000D02*
X58236000Y-32288000D01*
X58236000Y-32288000D02*
X60636000Y-32288000D01*
X60636000Y-32288000D02*
X60636000Y-29688000D01*
X60836000Y-29888000D02*
X60436000Y-29488000D01*
X60436000Y-29488000D02*
X60836000Y-29488000D01*
X60836000Y-29488000D02*
X60836000Y-29888000D01*
G04 #@! TO.C,D2*
X62186000Y-43640000D02*
X62186000Y-37140000D01*
X62186000Y-37140000D02*
X56686000Y-37140000D01*
X56686000Y-37140000D02*
X56686000Y-43640000D01*
X56686000Y-43640000D02*
X62186000Y-43640000D01*
X61436000Y-44390000D02*
X62936000Y-42890000D01*
X62936000Y-42890000D02*
X62936000Y-44390000D01*
X62936000Y-44390000D02*
X61436000Y-44390000D01*
X62936000Y-41640000D02*
X62936000Y-41140000D01*
X62936000Y-41140000D02*
X62436000Y-41140000D01*
X62436000Y-41140000D02*
X62936000Y-40390000D01*
X62936000Y-40390000D02*
X63436000Y-41140000D01*
X63436000Y-41140000D02*
X62936000Y-41140000D01*
X62936000Y-40390000D02*
X62936000Y-39890000D01*
D11*
G04 #@! TO.C,D3*
X57836000Y-52058000D02*
X57836000Y-47408000D01*
X61036000Y-52058000D02*
X61036000Y-47408000D01*
X61036000Y-47408000D02*
X60236000Y-47408000D01*
G04 #@! TO.C,J1*
D13*
X48434666Y-21296380D02*
X48434666Y-22010666D01*
X48387047Y-22153523D01*
X48291809Y-22248761D01*
X48148952Y-22296380D01*
X48053714Y-22296380D01*
X49434666Y-22296380D02*
X48863238Y-22296380D01*
X49148952Y-22296380D02*
X49148952Y-21296380D01*
X49053714Y-21439238D01*
X48958476Y-21534476D01*
X48863238Y-21582095D01*
G04 #@! TO.C,TH1*
X67548285Y-39460380D02*
X68119714Y-39460380D01*
X67834000Y-40460380D02*
X67834000Y-39460380D01*
X68453047Y-40460380D02*
X68453047Y-39460380D01*
X68453047Y-39936571D02*
X69024476Y-39936571D01*
X69024476Y-40460380D02*
X69024476Y-39460380D01*
X70024476Y-40460380D02*
X69453047Y-40460380D01*
X69738761Y-40460380D02*
X69738761Y-39460380D01*
X69643523Y-39603238D01*
X69548285Y-39698476D01*
X69453047Y-39746095D01*
G04 #@! TO.C,D1*
X61745904Y-31473380D02*
X61745904Y-30473380D01*
X61984000Y-30473380D01*
X62126857Y-30521000D01*
X62222095Y-30616238D01*
X62269714Y-30711476D01*
X62317333Y-30901952D01*
X62317333Y-31044809D01*
X62269714Y-31235285D01*
X62222095Y-31330523D01*
X62126857Y-31425761D01*
X61984000Y-31473380D01*
X61745904Y-31473380D01*
X63269714Y-31473380D02*
X62698285Y-31473380D01*
X62984000Y-31473380D02*
X62984000Y-30473380D01*
X62888761Y-30616238D01*
X62793523Y-30711476D01*
X62698285Y-30759095D01*
G04 #@! TO.C,D2*
X53447904Y-41092380D02*
X53447904Y-40092380D01*
X53686000Y-40092380D01*
X53828857Y-40140000D01*
X53924095Y-40235238D01*
X53971714Y-40330476D01*
X54019333Y-40520952D01*
X54019333Y-40663809D01*
X53971714Y-40854285D01*
X53924095Y-40949523D01*
X53828857Y-41044761D01*
X53686000Y-41092380D01*
X53447904Y-41092380D01*
X54400285Y-40187619D02*
X54447904Y-40140000D01*
X54543142Y-40092380D01*
X54781238Y-40092380D01*
X54876476Y-40140000D01*
X54924095Y-40187619D01*
X54971714Y-40282857D01*
X54971714Y-40378095D01*
X54924095Y-40520952D01*
X54352666Y-41092380D01*
X54971714Y-41092380D01*
G04 #@! TO.C,D3*
X62253904Y-50260380D02*
X62253904Y-49260380D01*
X62492000Y-49260380D01*
X62634857Y-49308000D01*
X62730095Y-49403238D01*
X62777714Y-49498476D01*
X62825333Y-49688952D01*
X62825333Y-49831809D01*
X62777714Y-50022285D01*
X62730095Y-50117523D01*
X62634857Y-50212761D01*
X62492000Y-50260380D01*
X62253904Y-50260380D01*
X63158666Y-49260380D02*
X63777714Y-49260380D01*
X63444380Y-49641333D01*
X63587238Y-49641333D01*
X63682476Y-49688952D01*
X63730095Y-49736571D01*
X63777714Y-49831809D01*
X63777714Y-50069904D01*
X63730095Y-50165142D01*
X63682476Y-50212761D01*
X63587238Y-50260380D01*
X63301523Y-50260380D01*
X63206285Y-50212761D01*
X63158666Y-50165142D01*
G04 #@! TD*
M02*
